HIERARCHY
ROOT Hips
{
	OFFSET -13.091600 -28.302996 44.698402
	CHANNELS 6 Xposition Yposition Zposition Zrotation Xrotation Yrotation
	JOINT Chest
	{
		OFFSET -0.673000 0.623899 5.369202
		CHANNELS 6 Xposition Yposition Zposition Zrotation Xrotation Yrotation
		JOINT Chest2
		{
			OFFSET 0.000000 0.000000 4.415001
			CHANNELS 6 Xposition Yposition Zposition Zrotation Xrotation Yrotation
			JOINT Neck
			{
				OFFSET 0.000000 0.000002 10.273300
				CHANNELS 6 Xposition Yposition Zposition Zrotation Xrotation Yrotation
				JOINT Head
				{
					OFFSET 0.000000 0.000000 2.173897
					CHANNELS 6 Xposition Yposition Zposition Zrotation Xrotation Yrotation
					End Site
					{
						OFFSET 0.000000 0.000000 9.961800
					}
				}
			}
			JOINT LeftCollar
			{
				OFFSET 2.359900 -0.565201 5.928101
				CHANNELS 6 Xposition Yposition Zposition Zrotation Xrotation Yrotation
				JOINT LeftShoulder
				{
					OFFSET 5.443700 0.000000 0.000000
					CHANNELS 6 Xposition Yposition Zposition Zrotation Xrotation Yrotation
					JOINT LeftElbow
					{
						OFFSET 0.000000 0.000000 -10.615799
						CHANNELS 6 Xposition Yposition Zposition Zrotation Xrotation Yrotation
						JOINT LeftWrist
						{
							OFFSET 0.000000 -0.000002 -13.110302
							CHANNELS 6 Xposition Yposition Zposition Zrotation Xrotation Yrotation
							End Site
							{
								OFFSET 0.000000 0.000000 -2.173901
							}
						}
					}
				}
			}
			JOINT RightCollar
			{
				OFFSET -2.636600 -1.718800 6.889698
				CHANNELS 6 Xposition Yposition Zposition Zrotation Xrotation Yrotation
				JOINT RightShoulder
				{
					OFFSET -4.139101 0.000000 0.000000
					CHANNELS 6 Xposition Yposition Zposition Zrotation Xrotation Yrotation
					JOINT RightElbow
					{
						OFFSET 0.000000 0.000000 -10.471802
						CHANNELS 6 Xposition Yposition Zposition Zrotation Xrotation Yrotation
						JOINT RightWrist
						{
							OFFSET 0.000000 0.000000 -12.281898
							CHANNELS 6 Xposition Yposition Zposition Zrotation Xrotation Yrotation
							End Site
							{
								OFFSET 0.000000 -0.000002 -2.173901
							}
						}
					}
				}
			}
		}
	}
	JOINT LeftHip
	{
		OFFSET 2.273400 0.176701 -2.518002
		CHANNELS 6 Xposition Yposition Zposition Zrotation Xrotation Yrotation
		JOINT LeftKnee
		{
			OFFSET 0.000000 -0.000002 -20.456402
			CHANNELS 6 Xposition Yposition Zposition Zrotation Xrotation Yrotation
			JOINT LeftAnkle
			{
				OFFSET 0.000000 -0.000002 -16.635300
				CHANNELS 6 Xposition Yposition Zposition Zrotation Xrotation Yrotation
				End Site
				{
					OFFSET 0.000000 -8.812399 0.000001
				}
			}
		}
	}
	JOINT RightHip
	{
		OFFSET -1.914800 0.018101 -2.699299
		CHANNELS 6 Xposition Yposition Zposition Zrotation Xrotation Yrotation
		JOINT RightKnee
		{
			OFFSET 0.000000 -0.000002 -20.148901
			CHANNELS 6 Xposition Yposition Zposition Zrotation Xrotation Yrotation
			JOINT RightAnkle
			{
				OFFSET 0.000000 -0.000002 -16.838301
				CHANNELS 6 Xposition Yposition Zposition Zrotation Xrotation Yrotation
				End Site
				{
					OFFSET 0.000000 -8.328398 0.000001
				}
			}
		}
	}
}
MOTION
Frames: 8
Frame Time: 0.041667
-13.204700 19.633806 44.591904 1420.740546 -0.640673 5.518339 -0.673001 0.623893 5.369218 18.864318 4.837985 1.012833 0.000002 -0.000003 4.414999 -16.610762 -1.819315 -1.615808 0.000000 0.000005 10.273291 44.756191 -12.849336 -11.928014 -0.000002 -0.000003 2.173896 2.282676 -5.243508 3.513053 2.359898 -0.565197 5.928103 -5.738179 7.286616 -9.194675 5.443694 0.000001 -0.000003 -66.647497 25.317206 -32.799497 0.000003 -0.000003 -10.615786 582.096698 -107.192217 236.089150 0.000003 0.000002 -13.110304 -78.283516 -171.860018 259.771710 -2.636604 -1.718802 6.889702 181.361016 -180.402727 167.837528 -4.139103 0.000001 0.000003 287.146699 -415.786837 374.053725 -0.000006 -0.000003 -10.471796 -33.049052 -12.421368 -371.988986 -0.000000 0.000004 -12.281900 347.219032 9.668113 35.459303 2.273400 0.176696 -2.517995 -39.500487 -144.008911 -129.119549 -0.000003 -0.000003 -20.456400 44.455454 130.568382 -105.416921 -0.000005 -0.000000 -16.635298 13.096957 47.825651 51.751893 -1.914800 0.018100 -2.699299 174.393622 180.612372 177.799673 0.000002 -0.000006 -20.148899 -2.993432 18.140071 -9.451750 0.000002 -0.000003 -16.838301 -5.096581 22.939689 -4.065371
-13.142900 19.615107 44.597702 1420.582850 -0.625693 5.635663 -0.673001 0.623893 5.369213 19.029250 4.783095 0.894516 -0.000002 -0.000000 4.415011 -16.741646 -1.834297 -1.629418 -0.000002 -0.000002 10.273303 44.775674 -12.865413 -11.960212 -0.000000 -0.000003 2.173896 2.302019 -5.241576 3.524858 2.359895 -0.565206 5.928102 -5.805076 7.419797 -9.192688 5.443693 0.000000 0.000006 -66.392376 25.418196 -32.663997 0.000004 0.000002 -10.615787 582.266633 -107.219285 235.985030 0.000004 0.000001 -13.110296 -78.331908 -171.937240 259.801681 -2.636604 -1.718808 6.889704 181.470681 -180.565108 167.727521 -4.139101 0.000002 0.000006 286.900484 -416.184081 373.791774 -0.000004 -0.000003 -10.471800 -32.934947 -12.381807 -371.913007 0.000000 0.000001 -12.281900 347.602916 9.560769 35.656224 2.273394 0.176698 -2.517999 -40.216068 -143.487576 -129.489131 0.000002 -0.000003 -20.456396 45.366417 130.168161 -105.704848 -0.000004 -0.000004 -16.635296 12.723416 48.003362 51.846982 -1.914801 0.018100 -2.699291 174.493807 180.598494 177.785767 -0.000000 -0.000006 -20.148901 -3.233829 18.045023 -9.407176 0.000003 -0.000003 -16.838303 -4.804903 23.089524 -4.076571
-13.079403 19.599607 44.604008 1420.469633 -0.583333 5.764415 -0.673001 0.623894 5.369198 19.150529 4.688622 0.750943 -0.000001 -0.000003 4.415002 -16.854564 -1.855264 -1.640853 0.000001 -0.000001 10.273298 44.902599 -12.866151 -11.975078 -0.000000 -0.000003 2.173890 2.213703 -5.252107 3.552814 2.359900 -0.565207 5.928100 -5.880975 7.554407 -9.143417 5.443699 0.000001 -0.000006 -66.142937 25.547539 -32.532686 0.000002 0.000006 -10.615797 582.478532 -107.263265 235.941044 0.000002 0.000008 -13.110297 -78.398264 -172.003315 259.722041 -2.636604 -1.718807 6.889702 181.514927 -180.677901 167.627951 -4.139104 -0.000001 0.000001 286.673394 -416.589029 373.571514 -0.000004 -0.000009 -10.471796 -32.726131 -12.323445 -371.824297 -0.000000 -0.000003 -12.281893 347.813942 9.585633 35.755299 2.273395 0.176695 -2.518007 -41.017301 -142.957321 -129.843617 0.000001 0.000000 -20.456400 46.250493 129.878629 -105.965604 -0.000007 -0.000001 -16.635294 12.446670 48.191322 51.993907 -1.914800 0.018099 -2.699299 174.592298 180.609640 177.740005 -0.000000 -0.000003 -20.148901 -3.526627 17.942779 -9.328517 0.000002 -0.000005 -16.838305 -4.507089 23.250604 -4.103377
-13.013501 19.583315 44.611301 1420.396414 -0.552964 5.857116 -0.673000 0.623901 5.369203 19.231608 4.627293 0.624253 0.000002 -0.000001 4.415003 -16.929664 -1.881265 -1.648692 0.000002 0.000002 10.273310 44.990531 -12.845303 -11.968167 -0.000002 -0.000002 2.173906 2.143469 -5.265018 3.573151 2.359901 -0.565201 5.928102 -5.980076 7.690918 -9.061042 5.443696 0.000003 0.000001 -65.899161 25.699456 -32.423752 0.000000 -0.000006 -10.615791 582.616557 -107.268114 235.844629 0.000001 0.000013 -13.110291 -78.399336 -172.078133 259.500743 -2.636600 -1.718800 6.889706 181.537112 -180.759522 167.557395 -4.139100 0.000004 -0.000001 286.844750 -416.889120 373.718336 -0.000003 0.000004 -10.471796 -32.701672 -12.295406 -371.726325 -0.000002 0.000001 -12.281899 348.005952 9.609331 35.871201 2.273398 0.176695 -2.518007 -41.918220 -142.432790 -130.262486 0.000003 0.000000 -20.456404 47.039062 129.727873 -106.144350 -0.000006 0.000003 -16.635294 12.357177 48.303620 52.150868 -1.914798 0.018103 -2.699300 174.665013 180.636415 177.704925 -0.000002 -0.000004 -20.148895 -3.869745 17.877103 -9.207121 0.000002 0.000002 -16.838301 -4.176581 23.410929 -4.138162
-12.946201 19.567514 44.618198 1420.348001 -0.492878 5.949201 -0.673001 0.623900 5.369204 19.286029 4.535505 0.490484 -0.000001 -0.000002 4.414999 -16.982357 -1.906912 -1.577736 -0.000002 0.000000 10.273298 45.066254 -12.862185 -11.987363 -0.000001 0.000000 2.173891 2.043387 -5.278102 3.608890 2.359897 -0.565202 5.928097 -6.062424 7.811491 -9.060122 5.443692 0.000000 -0.000006 -65.729786 25.803466 -32.378409 0.000004 -0.000003 -10.615784 582.907687 -107.412989 235.931755 -0.000000 0.000000 -13.110292 -78.439279 -172.177430 259.148196 -2.636605 -1.718803 6.889703 181.501035 -180.783619 167.453712 -4.139098 -0.000001 0.000003 287.376139 -417.097277 374.180931 -0.000005 0.000000 -10.471802 -32.709148 -12.295549 -371.610075 0.000003 0.000006 -12.281898 348.141709 9.638915 36.024487 2.273395 0.176699 -2.518006 -42.829121 -141.942560 -130.651670 -0.000001 -0.000001 -20.456394 47.691120 129.712327 -106.218526 -0.000008 0.000002 -16.635298 12.464854 48.312564 52.401143 -1.914799 0.018101 -2.699296 174.687539 180.685660 177.724609 0.000001 -0.000008 -20.148901 -4.029164 17.827798 -9.188720 0.000002 -0.000009 -16.838301 -3.977589 23.523644 -4.170295
-12.878202 19.552008 44.624702 1420.325380 -0.426960 6.056097 -0.673000 0.623896 5.369211 19.315392 4.432353 0.342051 0.000002 0.000005 4.415001 -17.064941 -1.920947 -1.588716 -0.000002 0.000001 10.273297 45.188791 -12.823504 -11.946526 0.000000 -0.000006 2.173892 1.932430 -5.289240 3.631957 2.359899 -0.565204 5.928093 -6.134254 7.883999 -9.011330 5.443694 0.000001 -0.000003 -65.542577 25.879278 -32.192375 0.000003 -0.000003 -10.615795 583.011888 -107.522320 235.872496 0.000000 0.000004 -13.110290 -78.512792 -172.267220 258.841767 -2.636604 -1.718804 6.889696 181.718726 -180.877138 167.528995 -4.139106 -0.000002 -0.000002 287.495530 -417.220712 374.383760 0.000002 0.000000 -10.471799 -32.678179 -12.319441 -371.484181 -0.000003 0.000006 -12.281898 348.275990 9.672115 36.205890 2.273393 0.176695 -2.518006 -43.870670 -141.381979 -131.110153 0.000002 -0.000001 -20.456394 48.320692 129.868056 -106.206402 -0.000005 0.000003 -16.635294 12.753369 48.152011 52.973100 -1.914798 0.018099 -2.699296 174.606041 180.753771 177.745865 -0.000002 -0.000001 -20.148903 -4.019900 17.820339 -9.216603 0.000002 -0.000004 -16.838301 -3.859292 23.597452 -4.189771
-12.805501 19.539606 44.627800 1420.278169 -0.391906 6.168374 -0.672999 0.623899 5.369210 19.371429 4.370034 0.188472 -0.000000 0.000004 4.415008 -17.162124 -1.938231 -1.603557 0.000002 -0.000000 10.273301 45.269285 -12.807723 -11.907288 -0.000001 -0.000002 2.173901 1.896065 -5.264075 3.628453 2.359901 -0.565201 5.928104 -6.166481 7.908545 -9.002116 5.443695 0.000003 -0.000003 -65.388918 25.932085 -31.976132 0.000001 -0.000004 -10.615792 582.996479 -107.573512 235.722888 0.000003 0.000008 -13.110295 -78.474789 -172.337790 258.599541 -2.636603 -1.718804 6.889695 181.821739 -180.980807 167.550141 -4.139101 0.000001 0.000005 287.685683 -417.332782 374.464793 -0.000000 -0.000006 -10.471796 -32.543136 -12.436037 -371.312333 -0.000002 -0.000001 -12.281900 348.438959 9.699147 36.412893 2.273395 0.176701 -2.518006 -44.693473 -140.934711 -131.435762 0.000003 0.000000 -20.456398 48.632084 130.131674 -106.050442 -0.000006 -0.000001 -16.635294 13.210256 47.917493 53.620735 -1.914796 0.018101 -2.699297 174.650860 180.794943 177.748816 -0.000000 -0.000010 -20.148899 -4.055282 17.801934 -9.248647 0.000001 -0.000006 -16.838301 -3.803468 23.662036 -4.194647
-12.727900 19.527407 44.629509 1420.196644 -0.405845 6.269610 -0.673003 0.623902 5.369217 19.465670 4.372372 0.038331 0.000002 -0.000001 4.415008 -17.268135 -1.956490 -1.618739 0.000002 0.000003 10.273300 45.307035 -12.826480 -11.868393 0.000001 -0.000002 2.173898 1.915864 -5.207424 3.600349 2.359902 -0.565198 5.928101 -6.176201 7.922243 -9.035163 5.443696 0.000000 -0.000002 -65.279028 25.961440 -31.752395 0.000000 0.000002 -10.615791 583.009757 -107.652606 235.586694 0.000003 0.000010 -13.110304 -78.427251 -172.411842 258.399935 -2.636604 -1.718803 6.889699 181.963548 -181.114651 167.581587 -4.139102 0.000002 0.000011 287.934903 -417.519902 374.658935 -0.000006 -0.000003 -10.471792 -32.489998 -12.407769 -371.156960 -0.000004 -0.000007 -12.281897 348.716346 9.737679 36.630926 2.273393 0.176703 -2.517998 -45.469655 -140.502373 -131.777667 0.000001 -0.000005 -20.456390 48.935785 130.286938 -105.890048 -0.000006 0.000004 -16.635296 13.648881 47.695129 54.162256 -1.914802 0.018102 -2.699294 174.735623 180.798126 177.768090 0.000001 -0.000005 -20.148899 -4.068425 17.788278 -9.290759 0.000004 -0.000007 -16.838303 -3.776039 23.716088 -4.184897
